<?xml version="1.0" standalone="no"?>
<!DOCTYPE svg PUBLIC "-//W3C//DTD SVG 20010904//EN"
 "http://www.w3.org/TR/2001/REC-SVG-20010904/DTD/svg10.dtd">
<svg version="1.0" xmlns="http://www.w3.org/2000/svg"
 width="537.000000pt" height="537.000000pt" viewBox="0 0 537.000000 537.000000"
 preserveAspectRatio="xMidYMid meet">
<metadata>
Created by potrace 1.11, written by Peter Selinger 2001-2013
</metadata>
<g transform="translate(0.000000,537.000000) scale(0.100000,-0.100000)"
fill="#000000" stroke="none">
<path d="M690 5360 c-5 -3 -6 -10 -2 -16 4 -6 70 -10 167 -9 l160 0 0 -1552
c0 -1372 -2 -1552 -15 -1556 -8 -2 -81 -3 -162 -2 -110 1 -149 -2 -152 -12 -3
-7 -2 -14 2 -16 4 -2 267 -3 585 -3 384 1 577 -2 577 -9 0 -5 -9 -38 -19 -71
-11 -34 -25 -90 -31 -125 -7 -35 -13 -71 -15 -79 -22 -112 -22 -429 -1 -536 2
-12 7 -38 10 -57 34 -216 133 -486 241 -658 183 -291 465 -517 750 -604 312
-95 674 -48 943 123 150 95 225 121 332 116 59 -2 199 -27 236 -41 10 -3 14 2
15 18 0 13 1 231 2 484 l2 460 170 3 c174 2 200 5 191 21 -7 11 -1215 11
-1222 -1 -3 -5 -3 -12 0 -15 3 -3 90 -6 193 -7 l188 -1 1 -222 c0 -122 -4
-262 -8 -310 -19 -199 -86 -368 -187 -471 -70 -72 -134 -104 -271 -138 -88
-22 -130 -27 -255 -28 -82 0 -172 3 -199 7 -167 27 -356 198 -483 437 -75 142
-148 351 -169 485 -4 28 -9 57 -10 65 -19 99 -26 604 -11 755 13 136 53 403
62 413 1 2 23 6 135 26 276 49 496 187 584 367 51 105 67 177 71 309 3 124
-10 210 -46 298 -12 29 -19 56 -15 59 3 3 50 7 103 9 288 8 539 -164 761 -522
56 -90 117 -207 157 -304 15 -36 33 -78 40 -95 7 -16 19 -47 26 -67 7 -21 15
-38 19 -38 4 0 5 922 1 938 -1 2 -18 -14 -38 -34 -83 -81 -150 -113 -223 -108
-65 4 -119 26 -260 104 -224 124 -317 153 -495 154 l-120 0 -35 54 c-118 182
-361 346 -640 432 -58 18 -112 35 -120 38 -14 5 6 10 100 27 162 29 346 100
457 176 158 109 236 268 235 479 0 161 -55 321 -155 455 -138 185 -302 289
-551 349 -191 46 -244 49 -964 50 -348 1 -637 -1 -642 -4z m1130 -34 c320 -21
549 -127 633 -292 41 -81 58 -137 73 -243 4 -25 8 -55 10 -66 5 -27 5 -230 -1
-277 -8 -70 -26 -164 -42 -213 -70 -224 -254 -358 -523 -381 -59 -5 -377 -8
-450 -5 -13 1 -15 89 -15 739 0 405 3 739 7 742 9 7 172 4 308 -4z m60 -1520
c14 -2 59 -10 100 -16 173 -28 373 -104 485 -185 116 -84 174 -157 218 -275
45 -121 49 -110 -56 -163 -328 -168 -589 -474 -727 -852 -12 -33 -28 -66 -34
-72 -8 -9 -63 -14 -186 -15 l-175 -3 -1 790 c0 435 2 794 4 798 4 8 325 2 372
-7z m857 -828 c-4 -101 -11 -140 -36 -217 -55 -166 -158 -296 -311 -393 l-58
-37 19 67 c67 238 162 441 272 582 61 78 99 119 111 120 5 0 6 -53 3 -122z"/>
</g>
</svg>
